<?xml version="1.0" standalone="no"?><!DOCTYPE svg PUBLIC "-//W3C//DTD SVG 1.1//EN" "http://www.w3.org/Graphics/SVG/1.1/DTD/svg11.dtd"><svg t="1618995509996" class="icon" viewBox="0 0 1024 1024" version="1.1" xmlns="http://www.w3.org/2000/svg" p-id="5171" xmlns:xlink="http://www.w3.org/1999/xlink" width="200" height="200"><defs><style type="text/css"></style></defs><path d="M367.98 717.66l32.58-333.96 228.07-40.73 298.95 344.94c22.77-53.69 35.45-112.69 35.45-174.69 0-247.46-200.54-448-448-448s-448 200.54-448 448c0 104.59 35.84 200.79 95.87 277.03 14.01 17.76 29.32 34.46 45.86 49.93 2.12 1.95 4.24 3.99 6.43 5.86 79.34 71.6 184.58 115.18 299.83 115.18 23.6 0 46.76-1.85 69.37-5.37L328.08 755.41l39.9-37.75z" fill="#E84382" p-id="5172"></path><path d="M839.72 821.94c36.82-38.74 66.7-84.09 87.87-134.03L628.63 342.97 400.56 383.7l-32.58 333.96-39.9 37.75 256.34 200.45c99.83-15.53 188.75-63.99 255.3-133.92z" fill="#E1015F" p-id="5173"></path><path d="M251.58 424.68l-24.23-12.19a1.04 1.04 0 0 0-0.97 0.02l-24.72 13.75c-0.87 0.49-1.86-0.42-1.45-1.33l11.04-24.32c0.13-0.29 0.12-0.62-0.02-0.9l-12.65-24.77c-0.45-0.87 0.46-1.82 1.35-1.41l24.49 11.12c0.29 0.13 0.62 0.12 0.9-0.02l24.77-12.65c0.87-0.45 1.82 0.46 1.41 1.35l-11.12 24.49c-0.13 0.29-0.12 0.62 0.02 0.9l12.56 24.59c0.46 0.87-0.49 1.82-1.38 1.37z" fill="#FFFFFF" p-id="5174"></path><path d="M672.04 316.79l-270.15 34.49c-8.15 1.04-14.26 7.98-14.26 16.19v65.48c0 6.81 5.98 12.07 12.73 11.21l41.18-5.26c0.89-9 4.87-17.89 12.14-25.26 18.01-18.26 49.04-20.33 69.31-4.63l17.58 13.61c2.46 1.9 6.22 1.65 8.41-0.56l15.61-15.82c18.01-18.26 49.04-20.33 69.31-4.63 4.31 3.33 7.73 7.22 10.36 11.42l34.77-4.44c11.3-1.44 19.77-11.06 19.77-22.45v-45.78c0-14.32-12.56-25.38-26.76-23.57z" fill="#C0D6E6" p-id="5175"></path><path d="M443.86 684.13H391c-1.85 0-3.36-1.51-3.36-3.36V356.46c0-1.85 1.51-3.36 3.36-3.36h52.86c1.85 0 3.36 1.51 3.36 3.36v324.31c0 1.85-1.51 3.36-3.36 3.36zM696.37 703.99h-48.1c-1.34 0-2.43-1.09-2.43-2.43v-339.4c0-1.34 1.09-2.43 2.43-2.43h48.1c1.34 0 2.43 1.09 2.43 2.43v339.4c0 1.34-1.09 2.43-2.43 2.43z" fill="#C0D6E6" p-id="5176"></path><path d="M301.70085 734.691679a56.02 80.73 61.558 1 0 141.971727-76.898376 56.02 80.73 61.558 1 0-141.971727 76.898376Z" fill="#EDF1F8" p-id="5177"></path><path d="M557.695697 727.9985a57.17 78.34 61.558 1 0 137.768675-74.621811 57.17 78.34 61.558 1 0-137.768675 74.621811Z" fill="#EDF1F8" p-id="5178"></path><path d="M880.09 369.28l-18.9-7.31a0.771 0.771 0 0 0-0.72 0.09l-17.38 12.02c-0.61 0.42-1.41-0.18-1.17-0.89l6.45-18.89a0.76 0.76 0 0 0-0.08-0.67l-11.21-17.5c-0.39-0.62 0.21-1.39 0.9-1.15l19.01 6.49c0.22 0.08 0.47 0.05 0.67-0.08l17.5-11.21c0.62-0.39 1.39 0.21 1.15 0.9l-6.49 19.01a0.76 0.76 0 0 0 0.08 0.67l11.12 17.37c0.4 0.65-0.24 1.42-0.93 1.15z" fill="#FFFFFF" p-id="5179"></path><path d="M673.86 142.32L661 160.99a0.85 0.85 0 0 0-0.09 0.8l8.56 22.02c0.3 0.78-0.56 1.49-1.27 1.04l-18.87-11.92a0.898 0.898 0 0 0-0.75-0.09l-21.94 7.64c-0.77 0.27-1.45-0.59-1.02-1.28l11.99-18.99c0.14-0.22 0.17-0.5 0.09-0.75l-7.64-21.94c-0.27-0.77 0.59-1.45 1.28-1.02l18.99 11.99c0.22 0.14 0.5 0.17 0.75 0.09l21.78-7.59c0.79-0.25 1.48 0.65 1 1.33z" fill="#FFC55F" p-id="5180"></path></svg>